<svg id="Layer_3" data-name="Layer 3" xmlns="http://www.w3.org/2000/svg" viewBox="0 0 15.79 15.79"><defs><style>.cls-1{fill:#d3a44a;}</style></defs><title>findoutmore</title><path class="cls-1" d="M7.9,0a7.9,7.9,0,1,0,7.9,7.89A7.89,7.89,0,0,0,7.9,0Zm0,13.48A1.5,1.5,0,1,1,9.4,12,1.5,1.5,0,0,1,7.9,13.48ZM9.62,8.39l-.26.1A1.52,1.52,0,0,0,9,8.68a1.38,1.38,0,0,0-.09.65c0,.38-.13.57-.94.57H7.64c-.8,0-.74-.28-.74-1.18v.05C6.9,7.6,7.22,7.08,8,6.88l.14-.06c.72-.19,1.45-.23,1.45-1.23s-1.17-1-1.38-1c-1.07,0-1.29.45-1.35.79-.09.54-.28.77-1.08.77-.3,0-.67,0-.87-.32a.89.89,0,0,1-.13-.6C4.75,3.55,6.9,2.89,8,2.89h.1c2.08,0,3.54,1.16,3.54,3C11.64,7,10.9,7.79,9.62,8.39Z"/></svg>