<svg id="Layer_1" data-name="Layer 1" xmlns="http://www.w3.org/2000/svg" viewBox="0 0 60.95 61.45"><defs><style>.cls-1{fill:#f8db94;}.cls-2{fill:#f6c785;}.cls-3{fill:#f3ac71;}.cls-4{fill:#ef8b46;}.cls-5{fill:#f09b36;}.cls-6{fill:#ed7c31;}</style></defs><title>money</title><rect class="cls-1" x="26.36" y="54.6" width="33.4" height="6.85"/><rect class="cls-1" x="27.56" y="27.32" width="33.4" height="6.85"/><rect class="cls-2" x="26.96" y="40.97" width="33.4" height="6.85"/><rect class="cls-2" x="25.76" y="20.5" width="33.4" height="6.85"/><rect class="cls-3" x="24.56" y="47.92" width="33.4" height="6.85"/><rect class="cls-4" x="24.56" y="34.13" width="33.4" height="6.85"/><rect class="cls-1" x="27.56" width="33.4" height="6.85"/><rect class="cls-1" x="27.56" y="13.65" width="33.4" height="6.85"/><rect class="cls-4" x="23.96" y="6.8" width="33.4" height="6.85"/><ellipse class="cls-4" cx="17.51" cy="44.4" rx="17.47" ry="17.05"/><circle class="cls-1" cx="16.7" cy="44.02" r="16.7"/><circle class="cls-5" cx="16.7" cy="44.02" r="12.35"/><circle class="cls-1" cx="17.02" cy="44.35" r="11.31"/><ellipse class="cls-6" cx="36.59" cy="44.4" rx="17.48" ry="17.05"/><circle class="cls-2" cx="35.78" cy="44.02" r="16.7"/><circle class="cls-6" cx="35.78" cy="44.02" r="12.35"/><circle class="cls-2" cx="36.11" cy="44.35" r="11.31"/></svg>