<svg xmlns="http://www.w3.org/2000/svg" viewBox="0 0 82.3 100.02"><title>資產 1</title><g id="圖層_2" data-name="圖層 2"><g id="icons"><path d="M40,20A40,40,0,1,0,80,60,40,40,0,0,0,40,20Zm0,70a30,30,0,1,1,0-60h0a30,30,0,0,1,0,60Z"/><path d="M47,60a7,7,0,1,1-10.31-6.17L38.87,35a1.12,1.12,0,0,1,2.23,0l2.17,18.81A7,7,0,0,1,47,60Z"/><rect x="28.04" width="24" height="14" rx="2" ry="2"/><rect x="71.06" y="18.96" width="10" height="10" rx="2" ry="2" transform="translate(5.34 60.81) rotate(-45.01)"/></g></g></svg>